<svg width="893" height="258" viewBox="0 0 893 258" fill="none" xmlns="http://www.w3.org/2000/svg">
<rect x="517.954" width="374.83" height="214.189" fill="url(#paint0_linear)"/>
<path d="M113.94 258V97.3587H81.9941V116.983H80.5489C76.2134 107.475 66.8579 95.8375 47.3101 95.8375C21.6775 95.8375 0 115.766 0 155.926C0 195.021 20.7647 216.09 47.3862 216.09C66.2494 216.09 76.0613 205.214 80.5489 195.478H81.5377V258H113.94ZM82.2223 155.774C82.2223 176.615 73.2471 190.306 57.6545 190.306C41.7577 190.306 33.0867 176.158 33.0867 155.774C33.0867 135.541 41.6055 121.622 57.6545 121.622C73.3992 121.622 82.2223 134.933 82.2223 155.774Z" fill="#F2F2F2"/>
<path d="M210.513 164.445C210.589 180.113 199.865 188.328 188.227 188.328C175.982 188.328 168.071 179.733 167.995 165.966V97.3587H135.593V171.747C135.669 199.053 151.642 215.71 175.145 215.71C192.715 215.71 205.341 206.659 210.589 192.968H211.806V214.189H242.916V97.3587H210.513V164.445Z" fill="#F2F2F2"/>
<path d="M264.55 214.189H296.952V97.3587H264.55V214.189ZM280.827 82.2985C290.487 82.2985 298.397 74.9206 298.397 65.8693C298.397 56.8941 290.487 49.5161 280.827 49.5161C271.243 49.5161 263.333 56.8941 263.333 65.8693C263.333 74.9206 271.243 82.2985 280.827 82.2985Z" fill="#F2F2F2"/>
<path d="M318.624 214.189H351.026V148.092C351.026 133.716 361.522 123.828 375.822 123.828C380.31 123.828 386.471 124.589 389.513 125.577V96.8263C386.623 96.1417 382.591 95.6853 379.321 95.6853C366.238 95.6853 355.514 103.291 351.254 117.743H350.037V97.3587H318.624V214.189Z" fill="#F2F2F2"/>
<path d="M449.786 216.471C478.69 216.471 498.161 202.399 502.725 180.722L472.757 178.744C469.486 187.643 461.119 192.283 450.319 192.283C434.118 192.283 423.849 181.559 423.849 164.141V164.064H503.41V155.165C503.41 115.461 479.374 95.8375 448.493 95.8375C414.114 95.8375 391.828 120.253 391.828 156.306C391.828 193.348 413.809 216.471 449.786 216.471ZM423.849 143.984C424.534 130.674 434.65 120.025 449.026 120.025C463.097 120.025 472.833 130.065 472.909 143.984H423.849Z" fill="#F2F2F2"/>
<path d="M539.21 216.166C548.946 216.166 557.389 208.028 557.465 197.912C557.389 187.948 548.946 179.809 539.21 179.809C529.17 179.809 520.879 187.948 520.955 197.912C520.879 208.028 529.17 216.166 539.21 216.166Z" fill="#F2F2F2"/>
<path d="M642.61 97.3587H619.411V89.5244C619.411 81.614 622.606 76.9743 632.114 76.9743C635.993 76.9743 639.948 77.8109 642.534 78.6476L648.239 54.308C644.207 53.091 635.308 51.1134 625.344 51.1134C603.363 51.1134 587.009 63.5114 587.009 88.9159V97.3587H570.504V121.698H587.009V214.189H619.411V121.698H642.61V97.3587Z" fill="#F2F2F2"/>
<path d="M658.121 214.189H690.523V144.06C690.523 131.13 698.738 122.535 709.539 122.535C720.187 122.535 727.337 129.837 727.337 141.322V214.189H758.75V142.843C758.75 130.75 765.672 122.535 777.462 122.535C787.806 122.535 795.564 129 795.564 142.007V214.189H827.89V135.618C827.89 110.289 812.83 95.8375 791.076 95.8375C773.963 95.8375 760.652 104.585 755.86 117.971H754.643C750.916 104.432 738.975 95.8375 722.926 95.8375C707.181 95.8375 695.239 104.204 690.371 117.971H689.002V97.3587H658.121V214.189Z" fill="#F2F2F2"/>
<defs>
<linearGradient id="paint0_linear" x1="906.517" y1="-3.25286e-05" x2="497.193" y2="52.585" gradientUnits="userSpaceOnUse">
<stop stop-color="#B030A3"/>
<stop offset="1" stop-color="#2F80ED"/>
</linearGradient>
</defs>
</svg>
